<svg width="60" height="60" viewBox="0 0 60 60" fill="none" xmlns="http://www.w3.org/2000/svg">
<rect width="60" height="60" fill="white"/>
<path d="M20.411 30.6283L26.6681 30.6283L23.5396 18.1479L20.411 30.6283ZM0 0L5.55942e-09 60L60 60L60 -5.55942e-09L0 0ZM30.1021 44.3124L27.8128 36.2015L19.3425 36.2015L17.0531 44.3124L11.2537 44.3124L19.4188 15.6362L19.4188 12.4965L27.2023 12.4965L36.512 44.3124L30.1021 44.3124ZM45.5168 44.3124L39.2595 44.3124L39.2595 20.1105L45.5168 20.1105L45.5168 44.3124ZM42.426 17.2062C40.6349 17.2062 39.1826 15.7302 39.1826 13.9095C39.1826 12.0888 40.6346 10.6127 42.426 10.6127C44.2175 10.6127 45.6693 12.0888 45.6693 13.9095C45.6693 15.7302 44.2173 17.2062 42.426 17.2062Z" fill="#FF808A"/>
</svg>
