<svg width="61" height="60" viewBox="0 0 61 60" fill="none" xmlns="http://www.w3.org/2000/svg">
<path d="M0 0.874084L59.1261 0.0126507L60.013 59.1384L0.886892 59.9998L0 0.874084Z" fill="#FF808A"/>
<path d="M47.8597 26.5052C47.3828 26.2912 46.7814 26.2053 46.0235 26.2165C42.0447 26.2753 39.4375 29.3776 39.5126 34.4616C39.5985 40.2719 42.3488 42.5686 45.8855 42.5163C46.6433 42.5051 47.463 42.3982 48.0592 42.1367L47.8281 26.5057L47.8597 26.5052ZM33.8323 34.7983C33.7236 27.4407 38.3753 21.6235 46.1434 21.5086C46.8066 21.4988 47.1539 21.4937 47.7864 21.5475L47.6651 13.3373C47.6623 13.1478 47.8183 13.0192 47.9762 13.0168L53.0602 12.9417C53.3128 12.9379 53.3774 13.0317 53.3797 13.1896L53.8064 42.0517C53.819 42.9043 53.8349 43.978 54.01 45.144C54.0133 45.3651 54.0138 45.3967 53.8257 45.4942C51.1918 46.7965 48.4214 47.406 45.7688 47.4452C38.9164 47.5465 33.9593 43.3874 33.8323 34.7983ZM22.9887 29.8419L32.0839 46.8579C32.2456 47.1082 32.1546 47.3622 31.9019 47.3659L26.4074 47.4472C26.06 47.4523 25.9007 47.3599 25.7382 47.0465C23.6556 42.9081 21.5391 38.6123 19.3571 34.1595L19.2939 34.1604C17.4618 38.4199 15.4458 43.061 13.4864 47.2592C13.3323 47.5141 13.1758 47.6112 12.9232 47.6149L7.68125 47.6924C7.36547 47.6971 7.33016 47.4449 7.48525 47.2531L15.8916 30.4837L7.27882 14.0607C7.08562 13.8108 7.27182 13.587 7.49286 13.5837L12.9243 13.5034C13.24 13.4988 13.3989 13.5596 13.4978 13.8424C15.5493 18.0128 17.6314 22.1196 19.5887 26.3231L19.6518 26.3221C21.4217 22.1268 23.3806 17.897 25.2457 13.7319C25.3999 13.4769 25.4922 13.3176 25.808 13.313L30.8921 13.2378C31.1447 13.2341 31.2422 13.4221 31.0885 13.7087L22.9887 29.8419Z" fill="white"/>
</svg>
