<svg width="60" height="66" viewBox="0 0 60 66" fill="none" xmlns="http://www.w3.org/2000/svg">
<path d="M60 0L54.5338 59.0164L29.9633 65.5814L5.46036 59.0257L0 0L60 0Z" fill="#FF808A"/>
<path d="M49.7678 55.3854L54.4186 4.88373L30 4.88373L30 60.6977L49.7678 55.3854Z" fill="#FFCBCF"/>
<path d="M12.5581 26.5116L13.2298 34.186H30V26.5116H12.5581Z" fill="white"/>
<path d="M30 11.8605H29.9741L11.1628 11.8605L11.8457 19.5349H30V11.8605Z" fill="white"/>
<path d="M30 53.0141V45.5476L29.9679 45.556L21.8193 43.3979L21.2983 37.6744H17.3387H13.9535L14.9786 48.9423L29.9663 53.0232L30 53.0141Z" fill="white"/>
<path d="M39.2598 33.8437L38.3869 43.2718L30 45.4602V53.0233L45.416 48.8929L45.5291 47.6647L47.2962 28.5263L47.4797 26.5743L48.8372 11.8605L30 11.8605V19.1301H40.5962L39.9119 26.5743H30V33.8437H39.2598Z" fill="white"/>
</svg>
