<svg width="80" height="63" viewBox="0 0 80 63" fill="none" xmlns="http://www.w3.org/2000/svg">
<path d="M1.7966 11.3526C1.73129 6.93484 5.25968 3.30057 9.67747 3.23526L69.1954 2.3554C73.6132 2.29009 77.2475 5.81848 77.3128 10.2363L77.9058 50.3483C77.9711 54.7661 74.4427 58.4004 70.0249 58.4657L10.507 59.3456C6.08917 59.4109 2.45489 55.8825 2.38958 51.4647L1.7966 11.3526Z" fill="white"/>
<path d="M11.3768 62.0979H69.7101C76.2319 62.0979 80 58.3497 80 50.9253V11.1365C80 3.74822 76.1956 0 68.6232 0H10.2899C3.76812 0 0 3.71218 0 11.1365V50.9253C0 58.3857 3.80435 62.0979 11.3768 62.0979ZM35.6884 32.869L10.3949 8.04227C9.42056 7.08594 9.79419 5.51421 11.1594 5.51421H68.8406C70.2708 5.51421 70.6406 7.13446 69.6206 8.13698L44.4565 32.869C42.8985 34.4187 41.4855 35.1035 40.0725 35.1035C38.6232 35.1035 37.2101 34.3827 35.6884 32.869ZM5.54348 50.9253V11.1365C5.54348 10.9888 5.72133 10.9139 5.82699 11.0172L20.1173 24.9848C23.5537 28.3436 23.561 33.8698 20.1334 37.2377L6.0182 51.1072C5.82961 51.2925 5.54348 51.1897 5.54348 50.9253ZM74.4565 11.1726V50.9614C74.4565 51.1356 74.2466 51.2236 74.1223 51.1015L59.9648 37.1914C56.5621 33.8482 56.567 28.3628 59.9756 25.0256L74.2247 11.0751C74.3111 10.9906 74.4565 11.1726 74.4565 11.1726ZM11.1594 56.5837C9.87044 56.5837 9.52395 55.1228 10.4431 54.2192L27.8304 37.1262C29.1358 35.8428 31.2284 35.8409 32.5362 37.1218C35.0725 39.6086 37.5 40.6538 40.0725 40.6538C42.6087 40.6538 45.0725 39.6086 47.6087 37.1218C48.9165 35.8409 51.0091 35.8428 52.3146 37.1261L69.5825 54.1015C70.5512 55.0538 70.1989 56.5837 68.8406 56.5837H11.1594Z" fill="#FF808A"/>
</svg>
