<svg width="60" height="90" viewBox="0 0 60 90" fill="none" xmlns="http://www.w3.org/2000/svg">
<path d="M15 89.9998C23.28 89.9998 30 83.2798 30 74.9999V59.9999H15C6.72 59.9999 0 66.7199 0 74.9999C0 83.2798 6.72 89.9998 15 89.9998Z" fill="#FFCBCF"/>
<path d="M0 45.0001C0 36.7201 6.72 30.0002 15 30.0002H30V60.0001H15C6.72 60.0001 0 53.2801 0 45.0001Z" fill="#FF808A"/>
<path d="M0 15C0 6.72 6.72 0 15 0L30 0V30H15C6.72 30 0 23.28 0 15Z" fill="#804045"/>
<path d="M29.9999 0L44.9999 0C53.2799 0 59.9999 6.72 59.9999 15C59.9999 23.28 53.2799 30 44.9999 30H29.9999V0Z" fill="#804045"/>
<path d="M59.9999 45.0001C59.9999 53.2801 53.2799 60.0001 44.9999 60.0001C36.7199 60.0001 29.9999 53.2801 29.9999 45.0001C29.9999 36.7201 36.7199 30.0002 44.9999 30.0002C53.2799 30.0002 59.9999 36.7201 59.9999 45.0001Z" fill="#FF808A"/>
</svg>
