<svg width="60" height="60" viewBox="0 0 60 60" fill="none" xmlns="http://www.w3.org/2000/svg">
<ellipse cx="30" cy="30.5882" rx="30" ry="29.4118" fill="white"/>
<path d="M30.0001 0C13.4336 0 0 13.5012 0 30.1563C0 43.4804 8.59593 54.7842 20.516 58.7717C22.0152 59.0508 22.5658 58.1175 22.5658 57.321C22.5658 56.602 22.5378 54.2262 22.5251 51.7064C14.1788 53.5307 12.4177 48.1484 12.4177 48.1484C11.053 44.6627 9.08674 43.736 9.08674 43.736C6.36495 41.8643 9.29191 41.9026 9.29191 41.9026C12.3045 42.1155 13.8908 45.0104 13.8908 45.0104C16.5665 49.6207 20.9089 48.2877 22.6208 47.5174C22.89 45.5681 23.6676 44.2379 24.5255 43.4849C17.8622 42.7221 10.8573 40.1363 10.8573 28.5814C10.8573 25.2891 12.0292 22.5988 13.9484 20.487C13.6369 19.7274 12.6101 16.6603 14.239 12.5065C14.239 12.5065 16.7582 11.6959 22.4912 15.5976C24.8841 14.9293 27.4506 14.5944 30.0001 14.583C32.5497 14.5944 35.1181 14.9293 37.5156 15.5976C43.2418 11.6959 45.7574 12.5065 45.7574 12.5065C47.3903 16.6603 46.3631 19.7274 46.0515 20.487C47.975 22.5988 49.139 25.2889 49.139 28.5814C49.139 40.1638 42.1209 42.7143 35.4406 43.4607C36.5166 44.3966 37.4754 46.2319 37.4754 49.0452C37.4754 53.0801 37.4406 56.3276 37.4406 57.321C37.4406 58.1235 37.9805 59.0638 39.5014 58.7677C51.4149 54.7757 60 43.4759 60 30.1563C60 13.5012 46.5682 0 30.0001 0Z" fill="#FF808A"/>
</svg>
