<svg width="60" height="85" viewBox="0 0 60 85" fill="none" xmlns="http://www.w3.org/2000/svg">
<path d="M5.56763 0.0475769L9.36719 0.0438793L9.37085 3.82125L12.8731 3.81784L12.8694 0.0404711L16.669 0.0367735L16.68 11.4683L12.8805 11.472L12.8768 7.66148L9.40761 7.66485L9.4113 11.4754L5.57869 11.4791L5.56763 0.0475769ZM21.6947 3.84239L18.3412 3.84565L18.3375 0.0351497L28.8606 0.024909L28.8643 3.83541L25.4943 3.83869L25.5016 11.4597L21.7021 11.4634L21.6947 3.84239ZM30.5291 0.0232853L34.5104 0.0194108L36.9593 4.04291L39.4003 0.0146521L43.3816 0.0107777L43.3927 11.4423L39.5931 11.446L39.5876 5.77993L36.9319 9.89123L34.2682 5.78511L34.2737 11.4512L30.5402 11.4548L30.5291 0.0232853ZM45.2649 0.00894498L49.0644 0.00524737L49.0718 7.65939L54.4573 7.65415L54.461 11.4315L45.2759 11.4405" fill="#FF808A"/>
<path d="M5.51093 78.0801L0 16.7198L59.9341 16.6614L54.5418 77.9993L29.9834 84.8489" fill="#FF808A"/>
<path d="M30.0281 79.6303L29.972 21.7273L54.471 21.7034L49.8465 74.061" fill="#FFCBCF"/>
<path d="M11.1466 29.2505L29.9792 29.2322L29.9865 36.7538L19.3808 36.7641L20.0821 44.4673L29.994 44.4576L30.0012 51.9627L13.2171 51.979L11.1466 29.2505ZM13.5511 55.756L21.0842 55.7487L21.6186 61.7622L30.0129 64.0072L30.0205 71.8601L14.6198 67.5676" fill="white"/>
<path d="M48.7458 29.214L29.9462 29.2323L29.9534 36.7539L48.0592 36.7363L48.7458 29.214ZM47.3894 44.4408L29.9609 44.4577L29.9682 51.9793L39.2193 51.9703L38.3532 61.746L29.9798 64.0073L29.9874 71.8271L45.3467 67.5377" fill="white"/>
</svg>
