<svg width="60" height="60" viewBox="0 0 60 60" fill="none" xmlns="http://www.w3.org/2000/svg">
<rect width="60" height="60" fill="#FF808A"/>
<path d="M39.9376 25.875C39.4688 25.6562 38.8438 25.5625 38.0938 25.5625C34.0625 25.5625 31.25 28.6563 31.25 33.8125C31.25 39.6875 34.125 42.0624 37.7189 42.0624C38.5001 42.0624 39.3126 41.9687 39.9376 41.6875V25.875ZM38.2812 20.7812C38.9375 20.7812 39.3126 20.7812 39.9375 20.8437V12.5312C39.9375 12.3125 40.0937 12.2188 40.2498 12.2188H45.3124C45.5624 12.2188 45.6249 12.3125 45.6249 12.4687V41.6876C45.6249 42.5625 45.6249 43.6563 45.7811 44.8438C45.7811 45.0625 45.7186 45.0938 45.4999 45.2189C42.8124 46.5001 39.9688 47.0626 37.3125 47.0626C30.4063 47.0626 25.4687 42.7815 25.4687 34.0626C25.4375 26.5937 30.375 20.7812 38.2812 20.7812ZM19.9376 46.1876C19.9376 46.5 19.8751 46.5938 19.5313 46.5938H14.7188C14.4064 46.5938 14.3125 46.4376 14.3125 46.1876V12.625C14.3125 12.3125 14.4687 12.2186 14.7188 12.2186H19.5626C19.8125 12.2186 19.9376 12.3124 19.9376 12.5937V46.1876Z" fill="white"/>
</svg>
