<svg width="60" height="60" viewBox="0 0 60 60" fill="none" xmlns="http://www.w3.org/2000/svg">
<path d="M60 0H0V60H60V0Z" fill="#FF808A"/>
<path d="M40.3046 46.8752C41.5132 48.8486 43.0856 50.2991 45.8665 50.2991C48.2027 50.2991 49.6951 49.1314 49.6951 47.5181C49.6951 45.5848 48.1618 44.9 45.5904 43.7752L44.1808 43.1705C40.1123 41.4372 37.4094 39.2657 37.4094 34.6752C37.4094 30.4467 40.6313 27.2276 45.6665 27.2276C49.2513 27.2276 51.8285 28.4752 53.6856 31.7419L49.2951 34.561C48.3284 32.8276 47.2856 32.1448 45.6665 32.1448C44.0151 32.1448 42.9685 33.1924 42.9685 34.561C42.9685 36.2524 44.0161 36.9372 46.4351 37.9848L47.8446 38.5886C52.6351 40.6429 55.3399 42.7372 55.3399 47.4457C55.3399 52.5219 51.3523 55.3029 45.997 55.3029C40.7608 55.3029 37.378 52.8076 35.7227 49.5372L40.3046 46.8752ZM20.3875 47.3638C21.2732 48.9352 22.0789 50.2638 24.0161 50.2638C25.8685 50.2638 27.037 49.5391 27.037 46.721V27.5495H32.6751V46.7972C32.6751 52.6352 29.2523 55.2924 24.2561 55.2924C19.7418 55.2924 17.1275 52.9562 15.798 50.1424L20.3875 47.3638Z" fill="white"/>
</svg>
