<svg width="60" height="60" viewBox="0 0 60 60" fill="none" xmlns="http://www.w3.org/2000/svg">
<path d="M0 0L60 0V60H0L0 0Z" fill="#FF808A"/>
<path d="M8.25028 12.8903C8.25028 12.8903 13.5833 12.75 17.9732 12.75C22.4093 12.75 25.5723 13.7937 27.6959 15.6276C29.7256 17.3607 31.0943 20.3151 31.0943 23.6783C31.0943 27.0415 30.0557 29.7934 28.1674 31.7284C25.7132 34.2253 22.8533 35.7034 17.9732 35.9078C16.6251 35.9643 15.3773 35.9778 15.3773 35.9778L15.3773 46.9103H8.25L8.25028 12.8903ZM15.377 29.9208C16.1513 29.9962 16.6366 29.9599 17.7843 29.9461C21.6075 29.9003 23.9667 27.5754 23.9667 24.0595C23.9667 20.901 22.0213 18.3076 18.3511 18.1732C16.8883 18.1198 15.377 18.1732 15.377 18.1732V29.9208Z" fill="white"/>
<path d="M33.8141 39.2941C35.2506 40.1755 38.6402 41.4955 40.9507 41.4955C43.3113 41.4955 44.2861 40.6636 44.2861 39.3666C44.2861 38.068 43.5163 36.7038 40.5903 35.7175C35.406 33.9521 33.4039 31.8389 33.4559 28.8812C33.4559 24.104 37.4591 20.5221 43.6698 20.5221C46.5955 20.5221 48.9328 21.4786 50.4713 22.2568V27.9902C49.341 27.3666 46.0821 25.9743 43.9268 25.9743C42.0264 25.9743 40.9493 26.7531 40.9493 28.0498C40.9493 29.2441 41.9252 29.8672 45.0047 30.9581C49.7774 32.6191 51.7795 35.0585 51.8301 38.7964C51.8301 43.5213 48.188 47.2784 40.9493 47.0504C38.465 46.9722 35.7128 45.9901 33.8136 44.9532L33.8141 39.2941Z" fill="white"/>
</svg>
