<svg width="60" height="36" viewBox="0 0 60 36" fill="none" xmlns="http://www.w3.org/2000/svg">
<path d="M30 0C21.9998 0 16.9999 3.99899 14.9996 11.9962C18 7.99724 21.5001 6.49818 25.4998 7.49755C27.7822 8.06776 29.4133 9.72363 31.2192 11.5558C34.1603 14.5404 37.5643 17.9947 45.0004 17.9947C52.9999 17.9947 58.0005 13.9957 60 5.99774C57.0004 9.99673 53.5003 11.4965 49.4998 10.4972C47.2182 9.92696 45.5871 8.27109 43.7812 6.4389C40.8401 3.45429 37.4353 0 30 0ZM14.9996 17.9947C7.00013 17.9947 1.9995 21.9937 0 29.9917C2.99963 25.9927 6.49969 24.4929 10.5002 25.493C12.7818 26.064 14.4129 27.7191 16.2188 29.5505C19.1599 32.5351 22.5647 35.9902 30 35.9902C38.0003 35.9902 43.0001 31.9912 45.0004 23.9932C42 27.9922 38.4999 29.492 34.5002 28.4919C32.2178 27.9224 30.5867 26.2658 28.7808 24.4344C25.8397 21.4498 22.4357 17.9947 14.9996 17.9947Z" fill="#FF808A"/>
</svg>
