<svg width="61" height="61" viewBox="0 0 61 61" fill="none" xmlns="http://www.w3.org/2000/svg">
<g clip-path="url(#clip0_62_498)">
<path d="M2.41286 21.4704C2.41286 21.4704 1.00734 20.4079 2.73115 19.0399L6.75263 15.4802C6.75263 15.4802 7.90591 14.279 9.09223 15.3564L45.3356 44.1215L45.145 57.6677C45.145 57.6677 45.0973 59.7946 42.42 59.5219L2.41286 21.4704Z" fill="#FF808A"/>
<path d="M11.7342 30.3349L2.16693 38.9456C2.16693 38.9456 1.18613 39.6671 2.13811 40.9944L6.46579 45.1176C6.46579 45.1176 7.49124 46.2711 9.048 44.9972L19.1691 37.4068L11.7342 30.3349Z" fill="#804045"/>
<path d="M28.3139 30.6405L45.8238 17.4162L45.901 3.94066C45.901 3.94066 45.2026 0.989603 42.7135 2.48547L19.3645 23.5231L28.3139 30.6405Z" fill="#804045"/>
<path d="M42.4197 59.54C43.4109 60.6027 44.6348 60.2764 44.6348 60.2764L58.2278 53.6931C59.9725 52.5183 59.7509 51.0265 59.7509 51.0265L60.3199 10.5805C60.345 8.80285 58.5665 8.16306 58.5665 8.16306L46.9486 2.25575C44.4149 0.610864 42.7135 2.48547 42.7135 2.48547C42.7135 2.48547 44.8897 0.936982 45.9009 3.94066L45.1484 57.4207C45.1433 57.7883 45.0613 58.1488 44.9028 58.472C44.5862 59.1004 43.9092 59.6815 42.3091 59.4119L42.4197 59.54Z" fill="#FFCBCF"/>
</g>
<defs>
<clipPath id="clip0_62_498">
<rect width="60" height="60" fill="white" transform="translate(1) rotate(0.806117)"/>
</clipPath>
</defs>
</svg>
