<svg width="60" height="60" viewBox="0 0 60 60" fill="none" xmlns="http://www.w3.org/2000/svg">
<ellipse cx="29.999" cy="29.9998" rx="29.999" ry="29.9998" fill="white"/>
<path d="M4.26429 29.999C4.26429 40.1862 10.1841 48.9891 18.7683 53.1613L6.49237 19.5253C5.02076 22.8208 4.26151 26.3899 4.26429 29.999ZM47.3724 28.7003C47.3724 25.5197 46.23 23.317 45.2501 21.6026C43.9456 19.4827 42.7233 17.6875 42.7233 15.5675C42.7233 13.2018 44.5171 10.9996 47.0443 10.9996C47.1584 10.9996 47.2667 11.0138 47.3783 11.0202C42.7992 6.82541 36.6992 4.26428 29.9993 4.26428C21.0086 4.26428 13.0987 8.87726 8.49714 15.8643C9.10093 15.8824 9.67043 15.8947 10.1533 15.8947C12.8451 15.8947 17.0118 15.568 17.0118 15.568C18.3991 15.4862 18.5627 17.5239 17.1773 17.6879C17.1773 17.6879 15.7827 17.852 14.2314 17.9333L23.603 45.8095L29.2354 28.9182L25.2253 17.9328C23.8395 17.8515 22.5267 17.6875 22.5267 17.6875C21.1399 17.6062 21.3025 15.4858 22.6893 15.5675C22.6893 15.5675 26.9392 15.8942 29.468 15.8942C32.1593 15.8942 36.3265 15.5675 36.3265 15.5675C37.7148 15.4858 37.8779 17.5234 36.4916 17.6875C36.4916 17.6875 35.0945 17.8515 33.5461 17.9328L42.8462 45.5979L45.4127 37.0198C46.5258 33.4602 47.3724 30.9035 47.3724 28.7003Z" fill="#FF808A"/>
<path d="M30.4508 32.2502L22.7294 54.6872C25.09 55.3829 27.5383 55.7362 29.9993 55.7362C32.9962 55.7362 35.8701 55.2176 38.5453 54.2774C38.4735 54.165 38.4122 54.0463 38.3622 53.9228L30.4508 32.2502ZM52.5807 17.6517C52.6914 18.4715 52.7541 19.352 52.7541 20.2981C52.7541 22.9096 52.2664 25.8454 50.7973 29.5162L42.9363 52.2446C50.5872 47.783 55.7334 39.4938 55.7334 29.999C55.7402 25.6833 54.6557 21.4359 52.5807 17.6517Z" fill="#FF808A"/>
<path d="M29.9993 0C13.4581 0 0 13.4574 0 29.999C0 46.5426 13.4576 60 29.9993 60C46.5399 60 60 46.543 60 29.999C59.9995 13.4574 46.5399 0 29.9993 0ZM29.9993 58.6244C14.2166 58.6244 1.37553 45.783 1.37553 29.999C1.37553 14.2165 14.2161 1.37606 29.9993 1.37606C45.7814 1.37606 58.6215 14.2165 58.6215 29.999C58.6215 45.783 45.7809 58.6244 29.9993 58.6244Z" fill="#FF808A"/>
</svg>
